<?xml version="1.0" encoding="UTF-8"?>
<svg version="1.1" xmlns="http://www.w3.org/2000/svg" width="32" height="32">
<path d="M0 0 C1.05445312 0.00644531 2.10890625 0.01289062 3.1953125 0.01953125 C5.875 0.1875 5.875 0.1875 7.875 1.1875 C8.679375 1.27 9.48375 1.3525 10.3125 1.4375 C12.875 2.1875 12.875 2.1875 14.6875 4.4375 C15.92072782 7.29339601 16.13817349 9.11714256 15.875 12.1875 C15.235625 12.31125 14.59625 12.435 13.9375 12.5625 C13.256875 12.76875 12.57625 12.975 11.875 13.1875 C11.545 13.8475 11.215 14.5075 10.875 15.1875 C12.525 15.1875 14.175 15.1875 15.875 15.1875 C16.16662929 20.14519796 16.00440055 23.21556853 12.875 27.1875 C12.215 27.1875 11.555 27.1875 10.875 27.1875 C10.545 28.1775 10.215 29.1675 9.875 30.1875 C6.67054541 32.4002758 3.76216483 32.4855309 -0.0625 32.5 C-1.08214844 32.51675781 -2.10179687 32.53351562 -3.15234375 32.55078125 C-6.52539188 32.13856906 -8.42821638 31.22871191 -11.125 29.1875 C-11.125 28.5275 -11.125 27.8675 -11.125 27.1875 C-12.115 26.8575 -13.105 26.5275 -14.125 26.1875 C-16.3377758 22.98304541 -16.4230309 20.07466483 -16.4375 16.25 C-16.45425781 15.23035156 -16.47101562 14.21070313 -16.48828125 13.16015625 C-16.07606906 9.78710812 -15.16621191 7.88428362 -13.125 5.1875 C-12.465 5.1875 -11.805 5.1875 -11.125 5.1875 C-10.795 4.1975 -10.465 3.2075 -10.125 2.1875 C-6.85887261 -0.09878917 -3.90251673 -0.05273671 0 0 Z M6.875 13.1875 C7.875 15.1875 7.875 15.1875 7.875 15.1875 Z " fill="#80442F" transform="translate(16.125,-0.1875)"/>
<path d="M0 0 C1.6396875 0.2475 1.6396875 0.2475 3.3125 0.5 C6.87525873 1.06718184 6.87525873 1.06718184 10 1 C12.25 3.8125 12.25 3.8125 14 7 C13 10 13 10 10.625 11.25 C8 12 8 12 5 11 C5 11.99 5 12.98 5 14 C4.34 14 3.68 14 3 14 C3 13.34 3 12.68 3 12 C2.34 11.67 1.68 11.34 1 11 C1 11.99 1 12.98 1 14 C0.01 14 -0.98 14 -2 14 C-2.33 13.67 -2.66 13.34 -3 13 C-3 13.33 -3 13.66 -3 14 C-5.31 14 -7.62 14 -10 14 C-9.67 12.68 -9.34 11.36 -9 10 C-10.32 9.67 -11.64 9.34 -13 9 C-12.38125 8.7525 -11.7625 8.505 -11.125 8.25 C-8.84453717 7.19826213 -8.84453717 7.19826213 -8.1875 5 C-7 3 -7 3 -3.375 1.75 C-2.26125 1.5025 -1.1475 1.255 0 1 C0 0.67 0 0.34 0 0 Z " fill="#895735" transform="translate(17,1)"/>
<path d="M0 0 C1.07765625 0.01804688 2.1553125 0.03609375 3.265625 0.0546875 C4.49539062 0.08949219 4.49539062 0.08949219 5.75 0.125 C6.08 0.785 6.41 1.445 6.75 2.125 C5.29263913 2.31991452 3.83405407 2.50569358 2.375 2.6875 C1.56289063 2.79191406 0.75078125 2.89632813 -0.0859375 3.00390625 C-2.25 3.125 -2.25 3.125 -4.25 2.125 C-6.26927511 2.73078253 -8.27253397 3.39419734 -10.25 4.125 C-10.25 4.785 -10.25 5.445 -10.25 6.125 C-10.91 6.125 -11.57 6.125 -12.25 6.125 C-12.91 8.435 -13.57 10.745 -14.25 13.125 C-13.92 13.125 -13.59 13.125 -13.25 13.125 C-13.20745644 15.12454746 -13.20919217 17.12541636 -13.25 19.125 C-13.58 19.455 -13.91 19.785 -14.25 20.125 C-13.59 22.105 -12.93 24.085 -12.25 26.125 C-11.59 26.125 -10.93 26.125 -10.25 26.125 C-10.25 26.785 -10.25 27.445 -10.25 28.125 C-3.18372151 30.9515114 2.68372151 30.9515114 9.75 28.125 C9.75 27.465 9.75 26.805 9.75 26.125 C10.41 26.125 11.07 26.125 11.75 26.125 C12.41 23.485 13.07 20.845 13.75 18.125 C12.76 18.125 11.77 18.125 10.75 18.125 C10.42 19.115 10.09 20.105 9.75 21.125 C8.76 20.795 7.77 20.465 6.75 20.125 C7.08 18.805 7.41 17.485 7.75 16.125 C5.77 16.125 3.79 16.125 1.75 16.125 C1.42 16.785 1.09 17.445 0.75 18.125 C0.09 17.795 -0.57 17.465 -1.25 17.125 C-0.64816251 15.10454558 0.02306096 13.10388961 0.75 11.125 C1.41 10.795 2.07 10.465 2.75 10.125 C3.08 11.775 3.41 13.425 3.75 15.125 C4.41 15.125 5.07 15.125 5.75 15.125 C5.75 14.135 5.75 13.145 5.75 12.125 C9.215 11.63 9.215 11.63 12.75 11.125 C13.08 10.135 13.41 9.145 13.75 8.125 C12.54716872 6.26607893 11.31389308 4.68889308 9.75 3.125 C8.76 3.125 7.77 3.125 6.75 3.125 C7.08 2.465 7.41 1.805 7.75 1.125 C10.0625 1.3125 10.0625 1.3125 12.75 2.125 C15.43448204 5.45746046 16.11325349 7.88704266 15.75 12.125 C15.110625 12.24875 14.47125 12.3725 13.8125 12.5 C13.131875 12.70625 12.45125 12.9125 11.75 13.125 C11.42 13.785 11.09 14.445 10.75 15.125 C12.4 15.125 14.05 15.125 15.75 15.125 C16.04162929 20.08269796 15.87940055 23.15306853 12.75 27.125 C12.09 27.125 11.43 27.125 10.75 27.125 C10.42 28.115 10.09 29.105 9.75 30.125 C6.54554541 32.3377758 3.63716483 32.4230309 -0.1875 32.4375 C-1.20714844 32.45425781 -2.22679687 32.47101562 -3.27734375 32.48828125 C-6.65039188 32.07606906 -8.55321638 31.16621191 -11.25 29.125 C-11.25 28.465 -11.25 27.805 -11.25 27.125 C-12.24 26.795 -13.23 26.465 -14.25 26.125 C-16.4627758 22.92054541 -16.5480309 20.01216483 -16.5625 16.1875 C-16.57925781 15.16785156 -16.59601562 14.14820313 -16.61328125 13.09765625 C-16.20106906 9.72460812 -15.29121191 7.82178362 -13.25 5.125 C-12.59 5.125 -11.93 5.125 -11.25 5.125 C-10.92 4.135 -10.59 3.145 -10.25 2.125 C-6.94764214 -0.2051684 -3.9479355 -0.08582468 0 0 Z M6.75 13.125 C7.75 15.125 7.75 15.125 7.75 15.125 Z " fill="#130907" transform="translate(16.25,-0.125)"/>
<path d="M0 0 C0.33 1.65 0.66 3.3 1 5 C1.99 5 2.98 5 4 5 C3.649375 5.78375 3.29875 6.5675 2.9375 7.375 C2.628125 8.24125 2.31875 9.1075 2 10 C2.33 10.66 2.66 11.32 3 12 C2.01 12 1.02 12 0 12 C-0.33 11.67 -0.66 11.34 -1 11 C-1 11.33 -1 11.66 -1 12 C-3.31 12 -5.62 12 -8 12 C-7.67 10.68 -7.34 9.36 -7 8 C-8.32 7.67 -9.64 7.34 -11 7 C-10.38125 6.7525 -9.7625 6.505 -9.125 6.25 C-6.61289704 4.77229238 -6.23892656 3.56044823 -5 1 C-2 0 -2 0 0 0 Z " fill="#BF8F44" transform="translate(15,3)"/>
<path d="M0 0 C1.98 0 3.96 0 6 0 C6 1.32 6 2.64 6 4 C6.66 4 7.32 4 8 4 C8 3.01 8 2.02 8 1 C8.99 1 9.98 1 11 1 C10.1875 3.9375 10.1875 3.9375 9 7 C8.01 7.33 7.02 7.66 6 8 C5.71125 8.66 5.4225 9.32 5.125 10 C4 12 4 12 1.375 12.75 C0.59125 12.8325 -0.1925 12.915 -1 13 C-1 11.68 -1 10.36 -1 9 C-0.01 8.67 0.98 8.34 2 8 C2 7.01 2 6.02 2 5 C1.01 5.33 0.02 5.66 -1 6 C-0.67 4.02 -0.34 2.04 0 0 Z " fill="#C28E47" transform="translate(18,16)"/>
<path d="M0 0 C0.66 0 1.32 0 2 0 C2 1.32 2 2.64 2 4 C2.66 4 3.32 4 4 4 C4.33 5.32 4.66 6.64 5 8 C5.99 7.67 6.98 7.34 8 7 C8.33 7.66 8.66 8.32 9 9 C8.01 10.485 8.01 10.485 7 12 C6.01 12 5.02 12 4 12 C4 13.32 4 14.64 4 16 C4.66 16.33 5.32 16.66 6 17 C4.02 17 2.04 17 0 17 C0.66 16.34 1.32 15.68 2 15 C2.46162427 12.56747339 2.46162427 12.56747339 2.625 9.875 C2.69976562 8.96492188 2.77453125 8.05484375 2.8515625 7.1171875 C2.90054687 6.41851562 2.94953125 5.71984375 3 5 C2.34 5 1.68 5 1 5 C0.67 3.35 0.34 1.7 0 0 Z " fill="#51331A" transform="translate(13,13)"/>
<path d="M0 0 C0.66 0.99 1.32 1.98 2 3 C2.66 3 3.32 3 4 3 C4.66 2.34 5.32 1.68 6 1 C6.33 2.32 6.66 3.64 7 5 C5.1875 6.0625 5.1875 6.0625 3 7 C2.01 6.67 1.02 6.34 0 6 C0 6.99 0 7.98 0 9 C-0.66 9 -1.32 9 -2 9 C-2 8.34 -2 7.68 -2 7 C-2.66 6.67 -3.32 6.34 -4 6 C-2.68 4.02 -1.36 2.04 0 0 Z " fill="#DFA251" transform="translate(22,6)"/>
<path d="M0 0 C2.3125 0.1875 2.3125 0.1875 5 1 C7.68448204 4.33246046 8.36325349 6.76204266 8 11 C4.21812119 12.83691257 2.05431692 13.15837626 -2 12 C-1.401875 11.855625 -0.80375 11.71125 -0.1875 11.5625 C1.56150404 11.1127561 3.28677023 10.57107659 5 10 C5.33 9.01 5.66 8.02 6 7 C4.79716872 5.14107893 3.56389308 3.56389308 2 2 C1.01 2 0.02 2 -1 2 C-0.67 1.34 -0.34 0.68 0 0 Z " fill="#140B07" transform="translate(24,1)"/>
<path d="M0 0 C0.66 0 1.32 0 2 0 C2 1.65 2 3.3 2 5 C0.68 5 -0.64 5 -2 5 C-2 5.99 -2 6.98 -2 8 C-0.68 8 0.64 8 2 8 C2 8.66 2 9.32 2 10 C-0.02045442 9.39816251 -2.02111039 8.72693904 -4 8 C-4.33 7.34 -4.66 6.68 -5 6 C-4.67 5.34 -4.34 4.68 -4 4 C-3.34 4 -2.68 4 -2 4 C-1.34 2.68 -0.68 1.36 0 0 Z " fill="#DFA553" transform="translate(13,19)"/>
<path d="M0 0 C-1.36125 0.86625 -1.36125 0.86625 -2.75 1.75 C-5.52022946 3.66785116 -7.71945499 5.54402845 -10 8 C-10.33 6.68 -10.66 5.36 -11 4 C-10.34 4 -9.68 4 -9 4 C-9 3.34 -9 2.68 -9 2 C-3.375 -1.125 -3.375 -1.125 0 0 Z " fill="#71362B" transform="translate(15,2)"/>
<path d="M0 0 C1.9375 0.8125 1.9375 0.8125 4 2 C4.33 2.99 4.66 3.98 5 5 C5.99 5.33 6.98 5.66 8 6 C8 6.33 8 6.66 8 7 C5.69 7 3.38 7 1 7 C1.33 5.68 1.66 4.36 2 3 C0.68 2.67 -0.64 2.34 -2 2 C-1.34 1.34 -0.68 0.68 0 0 Z " fill="#E2AA58" transform="translate(6,8)"/>
<path d="M0 0 C1.32 0 2.64 0 4 0 C4 1.32 4 2.64 4 4 C4.99 4.33 5.98 4.66 7 5 C5.02 5.99 5.02 5.99 3 7 C-0 2.25 -0 2.25 0 0 Z " fill="#E3AA52" transform="translate(3,17)"/>
<path d="M0 0 C2.475 0.495 2.475 0.495 5 1 C5 1.99 5 2.98 5 4 C7.97 4.495 7.97 4.495 11 5 C11 5.33 11 5.66 11 6 C7.7 6 4.4 6 1 6 C0.67 4.02 0.34 2.04 0 0 Z " fill="#6A4322" transform="translate(3,10)"/>
<path d="M0 0 C0.33 1.65 0.66 3.3 1 5 C0.67 4.34 0.34 3.68 0 3 C-1.98 3.33 -3.96 3.66 -6 4 C-6.33 2.68 -6.66 1.36 -7 0 C-3.98968256 -0.93423645 -3.13349732 -1.04449911 0 0 Z " fill="#6E372A" transform="translate(30,6)"/>
<path d="M0 0 C-0.6875 1.9375 -0.6875 1.9375 -2 4 C-4.625 4.75 -4.625 4.75 -7 5 C-7 3.68 -7 2.36 -7 1 C-2.25 0 -2.25 0 0 0 Z " fill="#EEAF57" transform="translate(24,24)"/>
<path d="M0 0 C0 1.98 0 3.96 0 6 C-1.32 6.33 -2.64 6.66 -4 7 C-3.34 5.68 -2.68 4.36 -2 3 C-2.66 3 -3.32 3 -4 3 C-4.33 3.66 -4.66 4.32 -5 5 C-5.66 5 -6.32 5 -7 5 C-6.1875 3.0625 -6.1875 3.0625 -5 1 C-2 0 -2 0 0 0 Z " fill="#E4B156" transform="translate(15,3)"/>
<path d="M0 0 C2.86724686 0.57344937 3.8614515 0.8614515 6 3 C5.01 4.485 5.01 4.485 4 6 C2.68 5.34 1.36 4.68 0 4 C0 2.68 0 1.36 0 0 Z " fill="#5F3B22" transform="translate(7,17)"/>
<path d="M0 0 C0.99 0 1.98 0 3 0 C2.1875 2.9375 2.1875 2.9375 1 6 C0.01 6.33 -0.98 6.66 -2 7 C-2.33 6.01 -2.66 5.02 -3 4 C-2.01 3.67 -1.02 3.34 0 3 C0 2.01 0 1.02 0 0 Z " fill="#E5A555" transform="translate(26,17)"/>
<path d="M0 0 C0.99 0.33 1.98 0.66 3 1 C2.67 1.99 2.34 2.98 2 4 C1.34 4 0.68 4 0 4 C-0.33 4.66 -0.66 5.32 -1 6 C-1.66 5.01 -2.32 4.02 -3 3 C-2.34 3 -1.68 3 -1 3 C-0.67 2.01 -0.34 1.02 0 0 Z " fill="#552F1E" transform="translate(11,5)"/>
<path d="M0 0 C1.65 0 3.3 0 5 0 C3.515 2.475 3.515 2.475 2 5 C1.01 4.67 0.02 4.34 -1 4 C-0.67 2.68 -0.34 1.36 0 0 Z " fill="#583222" transform="translate(24,16)"/>
</svg>
